<?xml version="1.0" standalone="no"?>
<!DOCTYPE svg PUBLIC "-//W3C//DTD SVG 20010904//EN"
 "http://www.w3.org/TR/2001/REC-SVG-20010904/DTD/svg10.dtd">
<svg version="1.0" xmlns="http://www.w3.org/2000/svg"
 width="225.000000pt" height="225.000000pt" viewBox="0 0 225.000000 225.000000"
 preserveAspectRatio="xMidYMid meet">

<g transform="translate(0.000000,225.000000) scale(0.100000,-0.100000)"
fill="#000000" stroke="none">
<path d="M880 2140 c-221 -47 -377 -134 -540 -299 -131 -134 -204 -261 -261
-456 -32 -109 -38 -350 -11 -472 72 -321 283 -588 577 -728 137 -65 232 -87
398 -93 158 -5 216 2 352 43 341 104 615 399 700 755 22 94 30 269 16 375 -58
441 -406 803 -848 880 -115 20 -277 18 -383 -5z m403 -165 c83 -17 235 -88
312 -145 259 -192 397 -507 356 -815 -52 -385 -360 -700 -741 -756 -394 -57
-783 169 -938 546 -47 115 -57 168 -56 325 0 164 14 229 83 369 51 105 92 163
173 243 130 131 313 223 492 248 78 11 231 4 319 -15z"/>
<path d="M943 1821 c-98 -49 -188 -99 -200 -110 -17 -16 -23 -33 -23 -64 0
-54 21 -83 69 -98 37 -11 43 -9 222 81 101 50 194 103 207 116 52 59 3 164
-77 164 -10 0 -99 -40 -198 -89z"/>
<path d="M1440 1723 c-21 -8 -678 -336 -770 -385 -94 -50 -107 -61 -114 -103
-8 -39 13 -88 43 -105 43 -22 86 -10 241 69 85 43 273 137 417 210 165 83 269
141 282 157 42 53 19 130 -46 155 -27 10 -31 10 -53 2z"/>
<path d="M1425 1360 c-27 -14 -217 -110 -421 -213 -346 -173 -373 -189 -388
-222 -14 -30 -15 -42 -6 -71 14 -43 59 -73 101 -68 16 2 164 71 328 153 458
230 535 270 554 293 10 13 17 37 17 65 0 90 -82 119 -185 63z"/>
<path d="M1333 960 c-119 -59 -151 -83 -169 -126 -18 -42 -20 -414 -3 -463 19
-55 102 -79 154 -45 38 25 45 65 45 250 l0 174 79 39 c115 58 142 102 106 171
-34 65 -83 65 -212 0z"/>
<path d="M902 763 c-33 -13 -42 -60 -42 -217 l0 -156 29 -32 c33 -37 82 -43
125 -14 40 26 46 53 46 217 l0 151 -29 29 c-24 23 -38 29 -73 28 -24 0 -49 -3
-56 -6z"/>
</g>
</svg>
